<svg width="527" height="536" viewBox="0 0 527 536" fill="none" xmlns="http://www.w3.org/2000/svg">
<path fill-rule="evenodd" clip-rule="evenodd" d="M178.571 84.8983C168.974 87.5943 162.1 94.4233 159.639 103.706C156.93 113.924 163.066 126.621 174.094 133.618C180.963 137.976 184.033 138.391 192.574 136.118C197.548 134.794 203.593 131.113 206.573 127.595C207.29 126.747 208.973 123.804 210.313 121.054C214.621 112.209 213.188 102.215 206.318 93.2093C200.73 85.8833 188.31 82.1633 178.571 84.8983ZM335.042 84.6233C317.994 87.9263 308.096 107.328 315.907 122.136C320.956 131.711 329.029 136.528 340.05 136.544C348.09 136.556 352.084 135.071 357.73 129.969C362.796 125.393 365.508 120.326 366.888 112.862C367.748 108.21 367.632 106.469 366.206 102.654C361.395 89.7763 348.112 82.0913 335.042 84.6233ZM0 272.554C0 274.479 0.206001 275.266 0.457001 274.304C0.709001 273.342 0.709001 271.766 0.457001 270.804C0.206001 269.842 0 270.629 0 272.554ZM119.268 390.554C120.263 391.654 121.303 392.554 121.578 392.554C121.853 392.554 121.263 391.654 120.268 390.554C119.273 389.454 118.233 388.554 117.958 388.554C117.683 388.554 118.273 389.454 119.268 390.554ZM337.768 403.446C329.39 405.257 321.21 411.857 318.09 419.325C317.305 421.204 316.65 425.433 316.634 428.722C316.58 440.034 323.455 449.422 335.579 454.589C340.561 456.713 341.322 456.775 347.883 455.603C356.268 454.104 361.758 450.363 366.247 443.088C368.847 438.873 369.24 437.334 369.067 432.042C368.455 413.26 353.897 399.96 337.768 403.446ZM254.018 498.243C254.98 498.495 256.556 498.495 257.518 498.243C258.48 497.992 257.693 497.786 255.768 497.786C253.843 497.786 253.056 497.992 254.018 498.243Z" fill="#4DCCA6"/>
<path fill-rule="evenodd" clip-rule="evenodd" d="M247.962 0.429507C168.236 4.89651 96.38 45.9995 48.671 114.428C14.847 162.943 -0.700038 217.231 1.14696 280.375C1.97296 308.613 5.25095 327.546 13.777 353.323C29.815 401.816 60.778 446.729 99.735 478.007C142.008 511.947 187.469 530.354 239.245 534.497C256.158 535.85 287.071 535.057 301.833 532.893C328.288 529.014 356.587 520.061 380.727 507.931C410.077 493.183 440.984 469.167 461.665 445.038C483.147 419.974 497.696 396.035 509.17 366.875C523.605 330.188 529.461 288.083 525.79 247.375C521.306 197.637 507.801 157.611 482.862 120.142C454.584 77.6565 420.913 47.7295 377.334 26.3485C337.215 6.66551 293.388 -2.11549 247.962 0.429507ZM289.992 38.9135C312.278 41.6915 338.65 49.2155 358.841 58.5555C392.333 74.0495 428.351 105.299 449.486 137.2C473.499 173.444 486.103 211.843 488.63 256.453C491.45 306.223 479.024 354.138 453.122 393.375C425.675 434.952 386.849 466.551 341.886 483.906C297.144 501.176 242.181 502.834 196.968 488.278C161.611 476.894 134.643 460.468 108.009 434.09C87.8459 414.122 74.312 395.706 62.2849 371.875C37.3139 322.396 31.5969 265.694 45.8749 209.12C63.8629 137.842 118.453 76.3395 186.334 50.8755C199.347 45.9935 219.871 40.8485 231.834 39.4695C237.059 38.8665 242.684 38.2165 244.334 38.0235C252.807 37.0365 279.033 37.5465 289.992 38.9135ZM253.834 64.3095C240.889 68.2615 232.436 79.2035 232.539 91.8745C232.602 99.6475 234.579 104.168 240.787 110.732L245.834 116.068V134.049V152.029L238.025 153.224C199.984 159.048 163.243 187.597 148.517 222.776C144.464 232.46 141.396 243.68 140.358 252.625L139.69 258.375H134.24C129.243 258.375 128.417 258.031 124.312 254.247L119.834 250.12V221.611V193.102L148.584 164.225L177.334 135.349L172.65 132.444C166.814 128.826 162.26 122.649 160.199 115.558L158.616 110.113L152.888 115.993C149.738 119.229 134.262 134.976 118.497 150.987L89.834 180.1V213.72V247.341L85.084 249.772C75.229 254.814 68.969 264.403 68.566 275.073C68.101 287.398 73.741 297.396 83.798 302.076L89.813 304.875L89.923 330.875C89.9839 345.174 90.326 357.872 90.684 359.091C91.041 360.311 112.393 382.473 138.133 408.341L184.931 455.375L261.133 455.365L337.334 455.354L332.334 452.987C323.138 448.632 316.611 438.845 316.425 429.13L316.334 424.387L256.809 424.38L197.284 424.375L158.559 385.629L119.834 346.883V323.706V300.531L124.014 296.953C126.313 294.985 128.788 293.339 129.514 293.297C130.24 293.255 132.634 293.221 134.834 293.221C137.034 293.221 139.207 293.255 139.664 293.297C140.12 293.339 141.29 297.087 142.263 301.625C145.684 317.576 153.658 333.823 164.97 347.883C192.9 382.603 240.7 399.815 284.334 390.865C326.722 382.169 361.681 351.517 375.48 310.947C376.794 307.081 378.149 301.545 378.49 298.646L379.109 293.375H388.994H398.879L403.356 297.502L407.834 301.63L407.818 324.752L407.802 347.875L379.982 375.846L352.162 403.82L356.368 406.604C363.1 411.064 368.634 420.515 368.823 427.875L368.901 430.875L370.962 428.375C372.095 427 384.343 414.383 398.178 400.338C412.014 386.292 426.372 371.598 430.084 367.685L436.834 360.568V332.492V304.416L440.584 302.492C442.647 301.435 446.014 298.884 448.067 296.823C462.231 282.604 458.352 260.326 440.011 250.549C432.971 246.798 424.538 245.574 417.834 247.333C415.359 247.982 410.302 250.507 406.596 252.944L399.858 257.375H389.998H380.137L378.931 248.754C375.609 225.007 364.727 204.305 346.031 186.164C334.692 175.162 322.924 167.052 310.696 161.812C300.973 157.645 288.567 153.911 281.084 152.898L275.834 152.187V133.779V115.37L279.906 111.691C287.969 104.406 290.85 92.9615 287.307 82.2935C284.965 75.2415 277.266 67.3915 270.397 65.0505C265.29 63.3105 258.153 62.9915 253.834 64.3095ZM366.845 113.375C366.764 120.065 358.072 131.684 350.879 134.717L348.135 135.875L369.993 158.375C390.921 179.918 391.819 181.003 391.093 183.875C389.607 189.75 390.384 200.624 392.598 204.938C401.616 222.505 424.788 226.354 438.57 212.573C452.631 198.512 446.542 175.481 426.867 168.307C421.017 166.174 419.369 164.686 393.793 138.467C371.61 115.728 366.87 111.315 366.845 113.375ZM283.334 187.252C307.035 193.432 327.931 210.634 338.752 232.875C343.791 243.232 345.452 249.068 346.897 261.496C349.705 285.651 343.298 307.93 328.149 326.687C317.251 340.181 298.764 351.918 281.424 356.352C269.722 359.345 251.278 359.184 238.642 355.978C206.378 347.794 181.12 321.988 174.256 290.198C171.898 279.272 172.094 261.879 174.699 251.074C182.539 218.552 208.183 193.418 240.834 186.256C252.142 183.775 271.764 184.235 283.334 187.252ZM246.472 214.96C229.976 218.954 215.91 230.174 208.206 245.487C204.037 253.775 202.496 261.014 202.58 271.923C202.692 286.596 207.926 299.843 217.938 310.797C228.643 322.51 241 328.247 257.334 329.086C264.863 329.471 268.94 329.18 273.834 327.901C308.963 318.728 327.81 278.811 312.162 246.721C299.958 221.693 272.835 208.579 246.472 214.96ZM270.231 247.767C275.255 249.867 280.966 255.419 283.128 260.307C287.031 269.13 284.946 282.27 278.535 289.245C274.713 293.404 267.053 296.354 260.052 296.365C252.485 296.376 248.444 294.822 242.788 289.721C237.076 284.572 234.878 279.473 234.878 271.375C234.878 263.453 237.09 258.119 242.703 252.506C249.444 245.765 260.772 243.815 270.231 247.767Z" fill="black"/>
</svg>
